<?xml version="1.0" encoding="UTF-8" standalone="no"?>
<!-- Created with Inkscape (http://www.inkscape.org/) -->

<svg
   xmlns:dc="http://purl.org/dc/elements/1.1/"
   xmlns:cc="http://creativecommons.org/ns#"
   xmlns:rdf="http://www.w3.org/1999/02/22-rdf-syntax-ns#"
   xmlns:svg="http://www.w3.org/2000/svg"
   xmlns="http://www.w3.org/2000/svg"
   xmlns:sodipodi="http://sodipodi.sourceforge.net/DTD/sodipodi-0.dtd"
   xmlns:inkscape="http://www.inkscape.org/namespaces/inkscape"
   width="16.411669mm"
   height="16.821659mm"
   viewBox="0 0 16.411669 16.821659"
   version="1.1"
   id="svg823"
   inkscape:version="0.92.3 (2405546, 2018-03-11)"
   sodipodi:docname="logo.svg"
   inkscape:export-filename="/home/newuser/Desktop/MyBlog/static/images/favicon2.png"
   inkscape:export-xdpi="96"
   inkscape:export-ydpi="96">
  <defs
     id="defs817" />
  <sodipodi:namedview
     id="base"
     pagecolor="#ffffff"
     bordercolor="#666666"
     borderopacity="1.0"
     inkscape:pageopacity="0"
     inkscape:pageshadow="2"
     inkscape:zoom="2.8"
     inkscape:cx="179.33957"
     inkscape:cy="-31.437319"
     inkscape:document-units="mm"
     inkscape:current-layer="g3540"
     showgrid="false"
     inkscape:window-width="1920"
     inkscape:window-height="1044"
     inkscape:window-x="1920"
     inkscape:window-y="0"
     inkscape:window-maximized="1"
     fit-margin-top="0"
     fit-margin-left="0"
     fit-margin-right="0"
     fit-margin-bottom="0"
     inkscape:pagecheckerboard="false" />
  <metadata
     id="metadata820">
    <rdf:RDF>
      <cc:Work
         rdf:about="">
        <dc:format>image/svg+xml</dc:format>
        <dc:type
           rdf:resource="http://purl.org/dc/dcmitype/StillImage" />
        <dc:title></dc:title>
      </cc:Work>
    </rdf:RDF>
  </metadata>
  <g
     inkscape:label="Layer 1"
     inkscape:groupmode="layer"
     id="layer1"
     transform="translate(-13.044089,-137.30587)">
    <path
       style="fill:#0000ff;fill-opacity:0;stroke:#000000;stroke-width:0.01193094;stroke-miterlimit:4;stroke-dasharray:none;stroke-dashoffset:0;stroke-opacity:1"
       d=""
       id="path2919"
       inkscape:connector-curvature="0"
       transform="scale(0.26458333)" />
    <path
       style="fill:#0000ff;fill-opacity:0;stroke:#000000;stroke-width:0.01193094;stroke-miterlimit:4;stroke-dasharray:none;stroke-dashoffset:0;stroke-opacity:1"
       d=""
       id="path2921"
       inkscape:connector-curvature="0"
       transform="scale(0.26458333)" />
    <path
       style="fill:#0000ff;fill-opacity:0;stroke:#000000;stroke-width:0.01193094;stroke-miterlimit:4;stroke-dasharray:none;stroke-dashoffset:0;stroke-opacity:1"
       d=""
       id="path2923"
       inkscape:connector-curvature="0"
       transform="scale(0.26458333)" />
    <path
       style="fill:#0000ff;fill-opacity:0;stroke:#000000;stroke-width:0.01193094;stroke-miterlimit:4;stroke-dasharray:none;stroke-dashoffset:0;stroke-opacity:1"
       d=""
       id="path2931"
       inkscape:connector-curvature="0"
       transform="scale(0.26458333)" />
    <path
       style="fill:#0000ff;fill-opacity:0;stroke:#000000;stroke-width:0.01193094;stroke-miterlimit:4;stroke-dasharray:none;stroke-dashoffset:0;stroke-opacity:1"
       d=""
       id="path2933"
       inkscape:connector-curvature="0"
       transform="scale(0.26458333)" />
    <path
       style="fill:#0000ff;fill-opacity:0;stroke:#000000;stroke-width:0.01193094;stroke-miterlimit:4;stroke-dasharray:none;stroke-dashoffset:0;stroke-opacity:1"
       d=""
       id="path2935"
       inkscape:connector-curvature="0"
       transform="scale(0.26458333)" />
    <path
       style="fill:#0000ff;fill-opacity:0;stroke:#000000;stroke-width:0.01193094;stroke-miterlimit:4;stroke-dasharray:none;stroke-dashoffset:0;stroke-opacity:1"
       d=""
       id="path2937"
       inkscape:connector-curvature="0"
       transform="scale(0.26458333)" />
    <path
       style="fill:#0000ff;fill-opacity:0;stroke:#000000;stroke-width:0.01193094;stroke-miterlimit:4;stroke-dasharray:none;stroke-dashoffset:0;stroke-opacity:1"
       d=""
       id="path2939"
       inkscape:connector-curvature="0"
       transform="scale(0.26458333)" />
    <g
       id="g3540"
       transform="translate(0.09449408,0.09449405)">
      <g
         id="g3801"
         inkscape:export-xdpi="96"
         inkscape:export-ydpi="96">
        <g
           id="g3839">
          <path
             sodipodi:open="true"
             d="m 20.040466,148.83737 a 1.3363476,1.3363476 0 0 1 -1.332911,1.33634 1.3363476,1.3363476 0 0 1 -1.339766,-1.32947 1.3363476,1.3363476 0 0 1 1.32602,-1.34318 1.3363476,1.3363476 0 0 1 1.346587,1.32257"
             sodipodi:end="6.272899"
             sodipodi:start="0"
             sodipodi:ry="1.3363476"
             sodipodi:rx="1.3363476"
             sodipodi:cy="148.83737"
             sodipodi:cx="18.704119"
             sodipodi:type="arc"
             id="path2949"
             style="fill:#5c75fb;fill-opacity:1;stroke:#5c75fb;stroke-width:0.2;stroke-miterlimit:4;stroke-dasharray:none;stroke-dashoffset:0;stroke-opacity:1" />
          <path
             sodipodi:open="true"
             d="m 23.514969,144.22697 a 1.3363476,1.3363476 0 0 1 -1.332911,1.33635 1.3363476,1.3363476 0 0 1 -1.339767,-1.32947 1.3363476,1.3363476 0 0 1 1.326021,-1.34318 1.3363476,1.3363476 0 0 1 1.346586,1.32256"
             sodipodi:end="6.272899"
             sodipodi:start="0"
             sodipodi:ry="1.3363476"
             sodipodi:rx="1.3363476"
             sodipodi:cy="144.22697"
             sodipodi:cx="22.178621"
             sodipodi:type="arc"
             id="path2949-2"
             style="fill:#5c75fb;fill-opacity:1;stroke:#5c75fb;stroke-width:0.2;stroke-miterlimit:4;stroke-dasharray:none;stroke-dashoffset:0;stroke-opacity:1" />
          <path
             sodipodi:open="true"
             d="m 26.922659,139.61656 a 1.3363476,1.3363476 0 0 1 -1.332911,1.33635 1.3363476,1.3363476 0 0 1 -1.339767,-1.32948 1.3363476,1.3363476 0 0 1 1.326021,-1.34318 1.3363476,1.3363476 0 0 1 1.346586,1.32257"
             sodipodi:end="6.272899"
             sodipodi:start="0"
             sodipodi:ry="1.3363476"
             sodipodi:rx="1.3363476"
             sodipodi:cy="139.61656"
             sodipodi:cx="25.586311"
             sodipodi:type="arc"
             id="path2949-2-3"
             style="fill:#5c75fb;fill-opacity:1;stroke:#5c75fb;stroke-width:0.2;stroke-miterlimit:4;stroke-dasharray:none;stroke-dashoffset:0;stroke-opacity:1" />
          <path
             sodipodi:open="true"
             d="m 25.786762,147.74026 a 1.3363476,1.3363476 0 0 1 -1.332911,1.33635 1.3363476,1.3363476 0 0 1 -1.339766,-1.32947 1.3363476,1.3363476 0 0 1 1.32602,-1.34318 1.3363476,1.3363476 0 0 1 1.346587,1.32256"
             sodipodi:end="6.272899"
             sodipodi:start="0"
             sodipodi:ry="1.3363476"
             sodipodi:rx="1.3363476"
             sodipodi:cy="147.74026"
             sodipodi:cx="24.450415"
             sodipodi:type="arc"
             id="path2949-7"
             style="fill:#5c00ff;fill-opacity:1;stroke:#5c00ff;stroke-width:0.2;stroke-miterlimit:4;stroke-dasharray:none;stroke-dashoffset:0;stroke-opacity:1" />
          <path
             sodipodi:open="true"
             d="m 29.261265,143.65903 a 1.3363476,1.3363476 0 0 1 -1.332911,1.33634 1.3363476,1.3363476 0 0 1 -1.339767,-1.32947 1.3363476,1.3363476 0 0 1 1.326021,-1.34318 1.3363476,1.3363476 0 0 1 1.346586,1.32256"
             sodipodi:end="6.272899"
             sodipodi:start="0"
             sodipodi:ry="1.3363476"
             sodipodi:rx="1.3363476"
             sodipodi:cy="143.65903"
             sodipodi:cx="27.924917"
             sodipodi:type="arc"
             id="path2949-2-5"
             style="fill:#5c00ff;fill-opacity:1;stroke:#5c00ff;stroke-width:0.2;stroke-miterlimit:4;stroke-dasharray:none;stroke-dashoffset:0;stroke-opacity:1" />
          <path
             sodipodi:open="true"
             d="m 18.303217,142.72896 a 1.3363476,1.3363476 0 0 1 -1.332911,1.33634 1.3363476,1.3363476 0 0 1 -1.339767,-1.32947 1.3363476,1.3363476 0 0 1 1.326021,-1.34318 1.3363476,1.3363476 0 0 1 1.346586,1.32256"
             sodipodi:end="6.272899"
             sodipodi:start="0"
             sodipodi:ry="1.3363476"
             sodipodi:rx="1.3363476"
             sodipodi:cy="142.72896"
             sodipodi:cx="16.966869"
             sodipodi:type="arc"
             id="path2949-7-9"
             style="fill:#5c00ff;fill-opacity:1;stroke:#5c00ff;stroke-width:0.2;stroke-miterlimit:4;stroke-dasharray:none;stroke-dashoffset:0;stroke-opacity:1" />
          <path
             sodipodi:open="true"
             d="m 21.777719,138.64772 a 1.3363476,1.3363476 0 0 1 -1.332911,1.33634 1.3363476,1.3363476 0 0 1 -1.339766,-1.32947 1.3363476,1.3363476 0 0 1 1.32602,-1.34318 1.3363476,1.3363476 0 0 1 1.346587,1.32256"
             sodipodi:end="6.272899"
             sodipodi:start="0"
             sodipodi:ry="1.3363476"
             sodipodi:rx="1.3363476"
             sodipodi:cy="138.64772"
             sodipodi:cx="20.441372"
             sodipodi:type="arc"
             id="path2949-2-5-2"
             style="fill:#5c00ff;fill-opacity:1;stroke:#5c00ff;stroke-width:0.2;stroke-miterlimit:4;stroke-dasharray:none;stroke-dashoffset:0;stroke-opacity:1" />
          <path
             transform="matrix(0.20103971,-0.97958309,-0.88096216,-0.47318672,0,0)"
             sodipodi:open="true"
             d="m -130.14616,-53.116882 a 0.60302842,0.99687725 0 0 1 -0.60148,0.996874 0.60302842,0.99687725 0 0 1 -0.60457,-0.991747 0.60302842,0.99687725 0 0 1 0.59837,-1.001975 0.60302842,0.99687725 0 0 1 0.60765,0.986594"
             sodipodi:end="6.272899"
             sodipodi:start="0"
             sodipodi:ry="0.99687725"
             sodipodi:rx="0.60302842"
             sodipodi:cy="-53.116882"
             sodipodi:cx="-130.74919"
             sodipodi:type="arc"
             id="path2949-7-9-2-8"
             style="fill:#5c00ff;fill-opacity:1;stroke:#5c00ff;stroke-width:0.11603802;stroke-miterlimit:4;stroke-dasharray:none;stroke-dashoffset:0;stroke-opacity:1" />
          <path
             transform="matrix(0.34182616,-0.9397632,-0.80248686,-0.59666979,0,0)"
             sodipodi:open="true"
             d="m -114.60973,-66.305367 a 0.60302836,0.99687725 0 0 1 -0.60148,0.996874 0.60302836,0.99687725 0 0 1 -0.60457,-0.991746 0.60302836,0.99687725 0 0 1 0.59837,-1.001975 0.60302836,0.99687725 0 0 1 0.60765,0.986593"
             sodipodi:end="6.272899"
             sodipodi:start="0"
             sodipodi:ry="0.99687725"
             sodipodi:rx="0.60302836"
             sodipodi:cy="-66.305367"
             sodipodi:cx="-115.21276"
             sodipodi:type="arc"
             id="path2949-7-9-2-8-9"
             style="fill:#5c00ff;fill-opacity:1;stroke:#5c00ff;stroke-width:0.11603802;stroke-miterlimit:4;stroke-dasharray:none;stroke-dashoffset:0;stroke-opacity:1" />
          <path
             transform="matrix(0.27509803,-0.96141618,-0.84234477,-0.53893903,0,0)"
             sodipodi:open="true"
             d="m -123.89367,-59.532146 a 0.60302836,0.99687725 0 0 1 -0.60148,0.996874 0.60302836,0.99687725 0 0 1 -0.60457,-0.991747 0.60302836,0.99687725 0 0 1 0.59837,-1.001975 0.60302836,0.99687725 0 0 1 0.60765,0.986594"
             sodipodi:end="6.272899"
             sodipodi:start="0"
             sodipodi:ry="0.99687725"
             sodipodi:rx="0.60302836"
             sodipodi:cy="-59.532146"
             sodipodi:cx="-124.4967"
             sodipodi:type="arc"
             id="path2949-7-9-2-8-9-7"
             style="fill:#5c75fb;fill-opacity:1;stroke:#5c75fb;stroke-width:0.11603802;stroke-miterlimit:4;stroke-dasharray:none;stroke-dashoffset:0;stroke-opacity:1" />
          <path
             inkscape:connector-curvature="0"
             inkscape:connector-type="polyline"
             id="path3106"
             d="m 19.510337,147.76879 1.932926,-2.44959"
             style="fill:none;fill-rule:evenodd;stroke:#5c75fb;stroke-width:0.26785043px;stroke-linecap:butt;stroke-linejoin:miter;stroke-opacity:1" />
          <path
             inkscape:connector-curvature="0"
             inkscape:connector-type="polyline"
             id="path3110"
             d="m 18.303145,143.24437 v 0"
             style="fill:none;fill-rule:evenodd;stroke:#000000;stroke-width:0.26458332px;stroke-linecap:butt;stroke-linejoin:miter;stroke-opacity:1" />
          <path
             inkscape:connector-curvature="0"
             inkscape:connector-type="polyline"
             id="path3106-2"
             d="m 25.259798,146.99749 2.091974,-2.37293"
             style="fill:none;fill-rule:evenodd;stroke:#5c00ff;stroke-width:0.27425709px;stroke-linecap:butt;stroke-linejoin:miter;stroke-opacity:1" />
          <path
             inkscape:connector-curvature="0"
             inkscape:connector-type="polyline"
             id="path3106-2-9"
             d="m 17.573572,142.12187 2.049177,-2.32978"
             style="fill:none;fill-rule:evenodd;stroke:#5c00ff;stroke-width:0.26895824px;stroke-linecap:butt;stroke-linejoin:miter;stroke-opacity:1" />
          <path
             inkscape:transform-center-y="0.068185734"
             inkscape:transform-center-x="0.011394004"
             transform="matrix(0.9420389,-0.33550368,-0.47106771,0.88209705,0,0)"
             d="m 124.47034,204.9081 a 0.6151197,0.79235798 0 0 1 -0.61354,0.79235 0.6151197,0.79235798 0 0 1 -0.61669,-0.78828 0.6151197,0.79235798 0 0 1 0.61036,-0.79641 0.6151197,0.79235798 0 0 1 0.61983,0.78419"
             sodipodi:open="true"
             sodipodi:end="6.2729053"
             sodipodi:start="0"
             sodipodi:ry="0.79235798"
             sodipodi:rx="0.6151197"
             sodipodi:cy="204.9081"
             sodipodi:cx="123.85522"
             sodipodi:type="arc"
             id="path3180-3"
             style="fill:#5c00ff;fill-opacity:1;stroke:#5c00ff;stroke-width:0.19879249;stroke-miterlimit:4;stroke-dasharray:none;stroke-dashoffset:0;stroke-opacity:1" />
          <path
             inkscape:transform-center-y="0.068185734"
             inkscape:transform-center-x="0.011394004"
             transform="matrix(0.9420389,-0.33550368,-0.47106771,0.88209705,0,0)"
             d="m 137.87841,215.75011 a 0.6151197,0.79235798 0 0 1 -0.61354,0.79235 0.6151197,0.79235798 0 0 1 -0.61669,-0.78828 0.6151197,0.79235798 0 0 1 0.61037,-0.79641 0.6151197,0.79235798 0 0 1 0.61983,0.78419"
             sodipodi:open="true"
             sodipodi:end="6.2729053"
             sodipodi:start="0"
             sodipodi:ry="0.79235798"
             sodipodi:rx="0.6151197"
             sodipodi:cy="215.75011"
             sodipodi:cx="137.26329"
             sodipodi:type="arc"
             id="path3180-3-1"
             style="fill:#5c00ff;fill-opacity:1;stroke:#5c00ff;stroke-width:0.19879249;stroke-miterlimit:4;stroke-dasharray:none;stroke-dashoffset:0;stroke-opacity:1" />
          <path
             style="fill:#5c75fb;fill-opacity:1;stroke:#5c75fb;stroke-width:0.2;stroke-miterlimit:4;stroke-dasharray:none;stroke-dashoffset:0;stroke-opacity:1"
             id="path3422"
             sodipodi:type="arc"
             sodipodi:cx="18.704119"
             sodipodi:cy="148.83737"
             sodipodi:rx="1.3363476"
             sodipodi:ry="1.3363476"
             sodipodi:start="0"
             sodipodi:end="6.272899"
             d="m 20.040466,148.83737 a 1.3363476,1.3363476 0 0 1 -1.332911,1.33634 1.3363476,1.3363476 0 0 1 -1.339766,-1.32947 1.3363476,1.3363476 0 0 1 1.32602,-1.34318 1.3363476,1.3363476 0 0 1 1.346587,1.32257"
             sodipodi:open="true" />
          <path
             style="fill:#5c75fb;fill-opacity:1;stroke:#5c75fb;stroke-width:0.2;stroke-miterlimit:4;stroke-dasharray:none;stroke-dashoffset:0;stroke-opacity:1"
             id="path3424"
             sodipodi:type="arc"
             sodipodi:cx="22.178621"
             sodipodi:cy="144.22697"
             sodipodi:rx="1.3363476"
             sodipodi:ry="1.3363476"
             sodipodi:start="0"
             sodipodi:end="6.272899"
             d="m 23.514969,144.22697 a 1.3363476,1.3363476 0 0 1 -1.332911,1.33635 1.3363476,1.3363476 0 0 1 -1.339767,-1.32947 1.3363476,1.3363476 0 0 1 1.326021,-1.34318 1.3363476,1.3363476 0 0 1 1.346586,1.32256"
             sodipodi:open="true" />
          <path
             style="fill:#5c75fb;fill-opacity:1;stroke:#5c75fb;stroke-width:0.2;stroke-miterlimit:4;stroke-dasharray:none;stroke-dashoffset:0;stroke-opacity:1"
             id="path3426"
             sodipodi:type="arc"
             sodipodi:cx="25.586311"
             sodipodi:cy="139.61656"
             sodipodi:rx="1.3363476"
             sodipodi:ry="1.3363476"
             sodipodi:start="0"
             sodipodi:end="6.272899"
             d="m 26.922659,139.61656 a 1.3363476,1.3363476 0 0 1 -1.332911,1.33635 1.3363476,1.3363476 0 0 1 -1.339767,-1.32948 1.3363476,1.3363476 0 0 1 1.326021,-1.34318 1.3363476,1.3363476 0 0 1 1.346586,1.32257"
             sodipodi:open="true" />
          <path
             style="fill:#5c00ff;fill-opacity:1;stroke:#5c00ff;stroke-width:0.2;stroke-miterlimit:4;stroke-dasharray:none;stroke-dashoffset:0;stroke-opacity:1"
             id="path3428"
             sodipodi:type="arc"
             sodipodi:cx="24.450415"
             sodipodi:cy="147.74026"
             sodipodi:rx="1.3363476"
             sodipodi:ry="1.3363476"
             sodipodi:start="0"
             sodipodi:end="6.272899"
             d="m 25.786762,147.74026 a 1.3363476,1.3363476 0 0 1 -1.332911,1.33635 1.3363476,1.3363476 0 0 1 -1.339766,-1.32947 1.3363476,1.3363476 0 0 1 1.32602,-1.34318 1.3363476,1.3363476 0 0 1 1.346587,1.32256"
             sodipodi:open="true" />
          <path
             style="fill:#5c00ff;fill-opacity:1;stroke:#5c00ff;stroke-width:0.2;stroke-miterlimit:4;stroke-dasharray:none;stroke-dashoffset:0;stroke-opacity:1"
             id="path3430"
             sodipodi:type="arc"
             sodipodi:cx="27.924917"
             sodipodi:cy="143.65903"
             sodipodi:rx="1.3363476"
             sodipodi:ry="1.3363476"
             sodipodi:start="0"
             sodipodi:end="6.272899"
             d="m 29.261265,143.65903 a 1.3363476,1.3363476 0 0 1 -1.332911,1.33634 1.3363476,1.3363476 0 0 1 -1.339767,-1.32947 1.3363476,1.3363476 0 0 1 1.326021,-1.34318 1.3363476,1.3363476 0 0 1 1.346586,1.32256"
             sodipodi:open="true" />
          <path
             style="fill:#5c00ff;fill-opacity:1;stroke:#5c00ff;stroke-width:0.2;stroke-miterlimit:4;stroke-dasharray:none;stroke-dashoffset:0;stroke-opacity:1"
             id="path3432"
             sodipodi:type="arc"
             sodipodi:cx="16.966869"
             sodipodi:cy="142.72896"
             sodipodi:rx="1.3363476"
             sodipodi:ry="1.3363476"
             sodipodi:start="0"
             sodipodi:end="6.272899"
             d="m 18.303217,142.72896 a 1.3363476,1.3363476 0 0 1 -1.332911,1.33634 1.3363476,1.3363476 0 0 1 -1.339767,-1.32947 1.3363476,1.3363476 0 0 1 1.326021,-1.34318 1.3363476,1.3363476 0 0 1 1.346586,1.32256"
             sodipodi:open="true" />
          <path
             style="fill:#5c00ff;fill-opacity:1;stroke:#5c00ff;stroke-width:0.2;stroke-miterlimit:4;stroke-dasharray:none;stroke-dashoffset:0;stroke-opacity:1"
             id="path3434"
             sodipodi:type="arc"
             sodipodi:cx="20.441372"
             sodipodi:cy="138.64772"
             sodipodi:rx="1.3363476"
             sodipodi:ry="1.3363476"
             sodipodi:start="0"
             sodipodi:end="6.272899"
             d="m 21.777719,138.64772 a 1.3363476,1.3363476 0 0 1 -1.332911,1.33634 1.3363476,1.3363476 0 0 1 -1.339766,-1.32947 1.3363476,1.3363476 0 0 1 1.32602,-1.34318 1.3363476,1.3363476 0 0 1 1.346587,1.32256"
             sodipodi:open="true" />
          <path
             style="fill:#5c00ff;fill-opacity:1;stroke:#5c00ff;stroke-width:0.11603802;stroke-miterlimit:4;stroke-dasharray:none;stroke-dashoffset:0;stroke-opacity:1"
             id="path3436"
             sodipodi:type="arc"
             sodipodi:cx="-130.74919"
             sodipodi:cy="-53.116882"
             sodipodi:rx="0.60302842"
             sodipodi:ry="0.99687725"
             sodipodi:start="0"
             sodipodi:end="6.272899"
             d="m -130.14616,-53.116882 a 0.60302842,0.99687725 0 0 1 -0.60148,0.996874 0.60302842,0.99687725 0 0 1 -0.60457,-0.991747 0.60302842,0.99687725 0 0 1 0.59837,-1.001975 0.60302842,0.99687725 0 0 1 0.60765,0.986594"
             sodipodi:open="true"
             transform="matrix(0.20103971,-0.97958309,-0.88096216,-0.47318672,0,0)" />
          <path
             style="fill:#5c00ff;fill-opacity:1;stroke:#5c00ff;stroke-width:0.11603802;stroke-miterlimit:4;stroke-dasharray:none;stroke-dashoffset:0;stroke-opacity:1"
             id="path3438"
             sodipodi:type="arc"
             sodipodi:cx="-115.21276"
             sodipodi:cy="-66.305367"
             sodipodi:rx="0.60302836"
             sodipodi:ry="0.99687725"
             sodipodi:start="0"
             sodipodi:end="6.272899"
             d="m -114.60973,-66.305367 a 0.60302836,0.99687725 0 0 1 -0.60148,0.996874 0.60302836,0.99687725 0 0 1 -0.60457,-0.991746 0.60302836,0.99687725 0 0 1 0.59837,-1.001975 0.60302836,0.99687725 0 0 1 0.60765,0.986593"
             sodipodi:open="true"
             transform="matrix(0.34182616,-0.9397632,-0.80248686,-0.59666979,0,0)" />
          <path
             style="fill:#5c75fb;fill-opacity:1;stroke:#5c75fb;stroke-width:0.11603802;stroke-miterlimit:4;stroke-dasharray:none;stroke-dashoffset:0;stroke-opacity:1"
             id="path3440"
             sodipodi:type="arc"
             sodipodi:cx="-124.4967"
             sodipodi:cy="-59.532146"
             sodipodi:rx="0.60302836"
             sodipodi:ry="0.99687725"
             sodipodi:start="0"
             sodipodi:end="6.272899"
             d="m -123.89367,-59.532146 a 0.60302836,0.99687725 0 0 1 -0.60148,0.996874 0.60302836,0.99687725 0 0 1 -0.60457,-0.991747 0.60302836,0.99687725 0 0 1 0.59837,-1.001975 0.60302836,0.99687725 0 0 1 0.60765,0.986594"
             sodipodi:open="true"
             transform="matrix(0.27509803,-0.96141618,-0.84234477,-0.53893903,0,0)" />
          <path
             style="fill:none;fill-rule:evenodd;stroke:#5c75fb;stroke-width:0.26785043px;stroke-linecap:butt;stroke-linejoin:miter;stroke-opacity:1"
             d="m 19.510337,147.76879 1.932926,-2.44959"
             id="path3442"
             inkscape:connector-type="polyline"
             inkscape:connector-curvature="0" />
          <path
             style="fill:none;fill-rule:evenodd;stroke:#000000;stroke-width:0.26458332px;stroke-linecap:butt;stroke-linejoin:miter;stroke-opacity:1"
             d="m 18.303145,143.24437 v 0"
             id="path3444"
             inkscape:connector-type="polyline"
             inkscape:connector-curvature="0" />
          <path
             style="fill:none;fill-rule:evenodd;stroke:#5c00ff;stroke-width:0.27425709px;stroke-linecap:butt;stroke-linejoin:miter;stroke-opacity:1"
             d="m 25.259798,146.99749 2.091974,-2.37293"
             id="path3446"
             inkscape:connector-type="polyline"
             inkscape:connector-curvature="0" />
          <path
             style="fill:none;fill-rule:evenodd;stroke:#5c00ff;stroke-width:0.26895824px;stroke-linecap:butt;stroke-linejoin:miter;stroke-opacity:1"
             d="m 17.573572,142.12187 2.049177,-2.32978"
             id="path3448"
             inkscape:connector-type="polyline"
             inkscape:connector-curvature="0" />
          <path
             style="fill:#5c00ff;fill-opacity:1;stroke:#5c00ff;stroke-width:0.19879249;stroke-miterlimit:4;stroke-dasharray:none;stroke-dashoffset:0;stroke-opacity:1"
             id="path3450"
             sodipodi:type="arc"
             sodipodi:cx="123.85522"
             sodipodi:cy="204.9081"
             sodipodi:rx="0.6151197"
             sodipodi:ry="0.79235798"
             sodipodi:start="0"
             sodipodi:end="6.2729053"
             sodipodi:open="true"
             d="m 124.47034,204.9081 a 0.6151197,0.79235798 0 0 1 -0.61354,0.79235 0.6151197,0.79235798 0 0 1 -0.61669,-0.78828 0.6151197,0.79235798 0 0 1 0.61036,-0.79641 0.6151197,0.79235798 0 0 1 0.61983,0.78419"
             transform="matrix(0.9420389,-0.33550368,-0.47106771,0.88209705,0,0)"
             inkscape:transform-center-x="0.011394004"
             inkscape:transform-center-y="0.068185734" />
          <path
             style="fill:#5c00ff;fill-opacity:1;stroke:#5c00ff;stroke-width:0.19879249;stroke-miterlimit:4;stroke-dasharray:none;stroke-dashoffset:0;stroke-opacity:1"
             id="path3452"
             sodipodi:type="arc"
             sodipodi:cx="137.26329"
             sodipodi:cy="215.75011"
             sodipodi:rx="0.6151197"
             sodipodi:ry="0.79235798"
             sodipodi:start="0"
             sodipodi:end="6.2729053"
             sodipodi:open="true"
             d="m 137.87841,215.75011 a 0.6151197,0.79235798 0 0 1 -0.61354,0.79235 0.6151197,0.79235798 0 0 1 -0.61669,-0.78828 0.6151197,0.79235798 0 0 1 0.61037,-0.79641 0.6151197,0.79235798 0 0 1 0.61983,0.78419"
             transform="matrix(0.9420389,-0.33550368,-0.47106771,0.88209705,0,0)"
             inkscape:transform-center-x="0.011394004"
             inkscape:transform-center-y="0.068185734" />
        </g>
      </g>
    </g>
  </g>
</svg>
